<?xml version="1.0" encoding="utf-8"?>
<!-- Generator: Adobe Illustrator 27.5.0, SVG Export Plug-In . SVG Version: 6.00 Build 0)  -->
<svg version="1.1" xmlns="http://www.w3.org/2000/svg" xmlns:xlink="http://www.w3.org/1999/xlink" x="0px" y="0px"
	 viewBox="0 0 500 500" style="enable-background:new 0 0 500 500;" xml:space="preserve">
<g id="BACKGROUND">
	<rect x="0" y="-0.051" style="fill:#FFFFFF;" width="500.003" height="500.027"/>
</g>
<g id="OBJECTS">
	<g>
		<defs>
			<rect id="SVGID_1_" x="0" y="-0.051" width="500.003" height="500.003"/>
		</defs>
		<clipPath id="SVGID_00000173157156530232858840000013961585361885057434_">
			<use xlink:href="#SVGID_1_"  style="overflow:visible;"/>
		</clipPath>
		<g style="clip-path:url(#SVGID_00000173157156530232858840000013961585361885057434_);">
			<polygon style="fill:#DCDCDC;" points="-13.301,-16.897 -13.301,4.184 5.04,-16.897 			"/>
			<polygon style="fill:#DCDCDC;" points="39.031,-5.093 16.002,-13.103 -13.301,23.789 -13.301,72.698 7.991,84.714 			"/>
			<path style="fill:#DCDCDC;" d="M-13.301,79.655v39.422c0,0,13.281-3.795,13.281-19.711C-0.02,84.714-13.301,79.655-13.301,79.655
				z"/>
			<path style="fill:#DCDCDC;" d="M70.392,10.877H42.565L19.322,81.552l46.443-39.843c0,0-1.784-12.292-1.224-15.811
				C65.176,21.918,70.392,10.877,70.392,10.877z"/>
			<polygon style="fill:#DCDCDC;" points="43.977,5.66 70.392,5.938 46.589,-2.379 			"/>
			<path style="fill:#DCDCDC;" d="M78.177,8.658l18.778,6.561l-26.131,22.15c0,0,1.303-12.713,2.415-16.531
				C74.204,17.519,78.177,8.658,78.177,8.658z"/>
			<rect x="29.6" y="-16.897" style="fill:#DCDCDC;" width="10.435" height="2.003"/>
			<polygon style="fill:#DCDCDC;" points="51.305,-16.897 48.906,-9.511 102.135,10.507 124.811,-8.947 116.401,-16.897 			"/>
			<polygon style="fill:#DCDCDC;" points="123.2,-16.897 134.078,-16.897 128.186,-11.842 			"/>
			<polygon style="fill:#DCDCDC;" points="150.827,-11.654 118.446,16.613 173.111,35.893 179.961,28.427 			"/>
			<polygon style="fill:#DCDCDC;" points="201.622,-16.897 156.833,-16.897 172.214,8.031 			"/>
			<polygon style="fill:#DCDCDC;" points="209.528,-16.897 244.47,-16.897 184.388,25.739 174.428,12.458 			"/>
			<polygon style="fill:#DCDCDC;" points="251.624,-16.897 280.044,-16.897 265.34,24 239.568,-7.147 			"/>
			<polygon style="fill:#DCDCDC;" points="241.229,32.696 254.826,20.522 234.746,-3.511 217.512,9.217 			"/>
			<polygon style="fill:#DCDCDC;" points="212.216,13.644 187.313,30.325 196.749,44.18 218.309,51.834 236.169,37.071 			"/>
			<polygon style="fill:#DCDCDC;" points="226.077,54.568 252.674,63.955 262.336,32.116 257.593,25.054 			"/>
			<polygon style="fill:#DCDCDC;" points="182.544,31.062 177.498,37.44 187.942,41.124 			"/>
			<polygon style="fill:#DCDCDC;" points="279.096,3.551 273.088,20.416 284.471,12.827 			"/>
			<polygon style="fill:#DCDCDC;" points="303.55,1.127 289.32,-16.897 281.415,-1.719 289.742,9.981 			"/>
			<polygon style="fill:#DCDCDC;" points="298.28,-16.897 328.637,-16.897 310.191,-2.035 			"/>
			<polygon style="fill:#DCDCDC;" points="333.38,-9.466 314.091,4.421 340.231,35.489 361.313,17.57 			"/>
			<polygon style="fill:#DCDCDC;" points="365.529,14.514 337.702,-12.787 343.077,-16.897 363.315,-16.897 379.337,1.022 			"/>
			<polygon style="fill:#ACD47C;" points="371.537,-16.897 396.94,-16.897 385.978,-2.035 			"/>
			<polygon style="fill:#DCDCDC;" points="385.767,5.554 369.64,18.308 377.703,26.319 			"/>
			<polygon style="fill:#DCDCDC;" points="307.766,7.662 293.431,15.937 319.045,48.454 335.066,37.598 			"/>
			<polygon style="fill:#DCDCDC;" points="266.447,38.019 257.9,65.798 332.617,92.151 339.81,79.259 353.091,71.591 
				374.277,31.194 364.475,21.47 325.053,53.619 315.461,53.514 287.528,17.887 268.555,30.641 282.258,51.09 293.958,40.654 
				297.963,47.927 285.526,55.938 295.117,69.746 290.48,72.065 			"/>
			<polygon style="fill:#ACD47C;" points="377.703,34.593 358.519,77.441 362.736,81.236 409.536,67.164 			"/>
			<polygon style="fill:#ACD47C;" points="388.823,11.984 381.234,29.692 413.805,66.057 431.513,59.891 			"/>
			<polygon style="fill:#ACD47C;" points="400.365,-9.466 391.669,7.662 434.201,57.915 447.64,55.253 			"/>
			<polygon style="fill:#ACD47C;" points="405.425,-10.626 410.801,-16.897 419.655,-16.897 463.293,49.456 449.695,53.883 			"/>
			<polygon style="fill:#ACD47C;" points="427.086,-16.897 440.051,-16.897 457.601,6.45 446.059,13.012 			"/>
			<polygon style="fill:#ACD47C;" points="460.131,10.403 449.063,17.887 466.139,43.922 478.471,33.645 			"/>
			<polygon style="fill:#ACD47C;" points="446.85,-16.897 461.554,3.288 477.206,-8.412 466.771,-16.897 			"/>
			<polygon style="fill:#ACD47C;" points="496.021,-16.897 464.874,7.662 481.317,30.483 515.311,6.793 515.311,-16.897 			"/>
			<polygon style="fill:#ACD47C;" points="515.311,13.881 515.311,33.803 507.247,21.312 			"/>
			<polygon style="fill:#ACD47C;" points="501.555,23.842 468.985,48.454 508.354,36.148 			"/>
			<polygon style="fill:#ACD47C;" points="515.311,40.76 472.305,53.883 515.311,86.453 			"/>
			<polygon style="fill:#ACD47C;" points="433.41,93.568 472.305,61.946 464.874,53.883 416.334,71.433 			"/>
			<polygon style="fill:#ACD47C;" points="476.574,64.792 510.409,91.038 431.513,142.424 404.476,123.293 			"/>
			<polygon style="fill:#ACD47C;" points="404.476,116.81 429.932,96.414 410.643,71.907 			"/>
			<polygon style="fill:#ACD47C;" points="404.476,74.437 397.994,119.34 355.462,100.209 364.633,86.453 			"/>
			<polygon style="fill:#ACD47C;" points="513.413,96.888 437.363,146.535 493.808,183.848 514.14,159.629 			"/>
			<polygon style="fill:#DCDCDC;" points="514.14,166.14 498.393,186.694 508.828,195.074 515.469,195.074 			"/>
			<polygon style="fill:#DCDCDC;" points="467.337,173.349 437.322,205.99 497.128,207.407 472.463,183.848 			"/>
			<polygon style="fill:#DCDCDC;" points="480.515,182.727 501.239,204.877 511.64,204.877 			"/>
			<polygon style="fill:#DCDCDC;" points="447.798,221.162 474.677,253.733 515.469,214.205 			"/>
			<polygon style="fill:#DCDCDC;" points="424.766,310.93 514.14,222.111 514.14,272.39 451.909,324.051 			"/>
			<polygon style="fill:#DCDCDC;" points="514.14,279.188 514.14,304.96 494.44,295.157 			"/>
			<polygon style="fill:#DCDCDC;" points="489.697,299.426 457.887,326.941 514.14,354.134 514.14,310.968 			"/>
			<polygon style="fill:#DCDCDC;" points="433.953,210.211 428.035,218.316 462.661,214.913 			"/>
			<polygon style="fill:#DCDCDC;" points="396.283,204.041 372.696,227.328 419.022,220.214 428.597,209.333 			"/>
			<path style="fill:#DCDCDC;" d="M351.83,196.76l-30.677,19.343c0,0,4.949,6.604,5.85,9.17c0.856,2.438,1.107,10.277,1.107,10.277
				l35.733-6.166l28.016-26.068L351.83,196.76z"/>
			<path style="fill:#ACD47C;" d="M431.835,148.084l-7.437,5.249c0,0,0.619,18.767,0,24.981c-0.616,6.179-5.017,24.677-5.017,24.677
				l12.257,2.049l30.707-35.263L431.835,148.084z"/>
			<path style="fill:#ACD47C;" d="M426.77,144.479c0,0-31.987-20.937-43.322-26.72c-9.33-4.761-38.737-15.969-38.737-15.969
				l-39.679,82.089l47.514,7.942L426.77,144.479z"/>
			<path style="fill:#DCDCDC;" d="M345.762,195.766l-43.896-7.19l-2.69,5.234c0,0,8.968,6.285,11.542,8.854
				c2.384,2.379,8.222,10.672,8.222,10.672L345.762,195.766z"/>
			<path style="fill:#ACD47C;" d="M418.706,157.286l-57.77,35.937l53.271,8.904c0,0,3.248-20.054,3.866-26.974
				C418.471,170.701,418.706,157.286,418.706,157.286z"/>
			<path style="fill:#ACD47C;" d="M296.013,198.553c0,0,7.457,4.446,9.645,6.324c2.378,2.043,8.38,9.328,8.38,9.328l-23.234,15.789
				c0,0-2.282-2.492-3.132-3.225c-0.776-0.669-3.307-2.381-3.307-2.381L296.013,198.553z"/>
			<path style="fill:#ACD47C;" d="M316.726,219.423l-22.958,15.253c0,0,0.812,1.875,1.045,2.518
				c0.279,0.769,0.843,3.028,0.843,3.028l27.394-4.672c0,0-0.897-7.631-1.897-9.961
				C320.404,223.845,316.726,219.423,316.726,219.423z"/>
			<path style="fill:#ACD47C;" d="M322.067,261.284l-26.194-12.249c0,0,0.231-1.876,0.263-2.505
				c0.035-0.666-0.003-2.668-0.003-2.668l26.916-2.936c0,0,0.09,6.405,0,8.538C322.941,252.04,322.067,261.284,322.067,261.284z"/>
			<polygon style="fill:#DCDCDC;" points="328.584,240.293 327.33,263.828 349.929,242.665 349.929,238.396 			"/>
			<polygon style="fill:#DCDCDC;" points="331.998,266.085 352.3,246.618 391.511,265.433 379.029,288.82 			"/>
			<polygon style="fill:#DCDCDC;" points="401.077,249.78 393.409,261.796 355.937,242.981 364.633,233.969 382.657,233.969 			"/>
			<polygon style="fill:#DCDCDC;" points="386.926,231.439 414.279,225.906 403.211,243.772 			"/>
			<polygon style="fill:#DCDCDC;" points="408.271,246.618 423.133,261.164 431.355,256.579 442.106,256.104 456.178,270.176 
				470.882,257.527 442.581,222.111 422.501,223.534 			"/>
			<polygon style="fill:#DCDCDC;" points="451.909,274.366 440.841,261.796 431.987,261.796 419.655,275.077 409.22,275.077 
				396.887,270.176 384.582,291.504 418.658,307.977 			"/>
			<polygon style="fill:#DCDCDC;" points="405.267,251.361 398.468,264.642 408.271,270.176 418.232,270.176 422.501,265.275 			"/>
			<polygon style="fill:#DCDCDC;" points="337.097,93.731 351.112,98.674 358.519,84.925 352.88,78.284 342.234,82.922 			"/>
			<polygon style="fill:#DCDCDC;" points="291.605,83.234 278.621,106.849 315.303,148.432 340.294,100.246 			"/>
			<polygon style="fill:#DCDCDC;" points="286.132,81.321 273.72,102.897 258.015,88.509 257.119,71.076 			"/>
			<polygon style="fill:#DCDCDC;" points="253.008,83.607 234.035,102.897 248.581,146.851 257.119,137.048 			"/>
			<polygon style="fill:#DCDCDC;" points="258.7,143.373 238.304,177.208 245.577,194.442 262.178,187.643 			"/>
			<path style="fill:#DCDCDC;" d="M265.498,149.539l2.214,38.104c0,0,12.078-0.894,15.969,0c2.912,0.669,10.751,5.218,10.751,5.218
				l1.739-5.218L265.498,149.539z"/>
			<polygon style="fill:#DCDCDC;" points="262.811,119.34 262.811,140.685 299.176,182.9 305.658,168.907 			"/>
			<polygon style="fill:#DCDCDC;" points="259.965,96.888 260.755,111.593 268.502,116.494 271.638,107.64 			"/>
			<polygon style="fill:#DCDCDC;" points="275.459,111.593 272.455,119.34 308.346,163.611 312.931,153.017 			"/>
			<path style="fill:#ACD47C;" d="M270.031,192.861h12.754l9.908,4.532l-12.217,25.113c0,0-3.845-1.139-5.165-1.322
				c-1.39-0.193-5.613-0.14-5.613-0.14L270.031,192.861z"/>
			<path style="fill:#ACD47C;" d="M264.55,192.861l-16.233,6.957l13.407,23.354c0,0,1.188-0.516,1.587-0.666
				c0.417-0.157,1.673-0.563,1.673-0.563L264.55,192.861z"/>
			<path style="fill:#ACD47C;" d="M229.832,214.915l13.742-13.517l14.59,23.8c0,0-1.035,0.742-1.358,1.004
				c-0.321,0.261-1.262,1.074-1.262,1.074L229.832,214.915z"/>
			<polygon style="fill:#DCDCDC;" points="228.185,107.693 209.212,124.241 234.931,170.725 245.577,151.12 			"/>
			<polygon style="fill:#DCDCDC;" points="215.536,149.117 185.918,193.804 223.833,212.031 240.833,195.917 			"/>
			<polygon style="fill:#DCDCDC;" points="212.268,143.373 180.799,191.343 132.486,168.117 203.414,127.614 			"/>
			<polygon style="fill:#DCDCDC;" points="207.63,118.76 252.428,77.019 252.197,69.464 187.257,46.772 180.436,54.041 			"/>
			<polygon style="fill:#DCDCDC;" points="175.587,56.36 147.127,72.382 162.411,100.841 188.447,86.928 			"/>
			<polygon style="fill:#DCDCDC;" points="165.573,105.057 179.698,136.785 201.517,123.187 189.29,92.83 			"/>
			<polygon style="fill:#DCDCDC;" points="97.903,52.46 111.711,85.557 171.16,51.933 170.982,41.086 140.788,30.535 			"/>
			<polygon style="fill:#DCDCDC;" points="96.954,48.56 95.442,36.694 113.442,20.98 134.427,28.313 			"/>
			<polygon style="fill:#DCDCDC;" points="142.648,73.805 110.393,94.833 132.529,164.243 175.534,139.209 			"/>
			<polygon style="fill:#DCDCDC;" points="89.831,41.592 102.33,88.667 35.905,88.667 			"/>
			<polygon style="fill:#DCDCDC;" points="29.676,94.163 11.514,109.959 43.671,125.419 98.693,92.83 			"/>
			<polygon style="fill:#DCDCDC;" points="48.256,127.614 85.549,145.551 102.33,96.572 			"/>
			<polygon style="fill:#DCDCDC;" points="106.757,99.418 89.946,147.665 127.785,165.857 			"/>
			<polygon style="fill:#DCDCDC;" points="14.287,188.571 83.229,156.171 3.767,116.722 			"/>
			<polygon style="fill:#DCDCDC;" points="-13.301,210.147 7.821,191.366 -2.287,122.007 -14.144,132.358 			"/>
			<polygon style="fill:#DCDCDC;" points="8.602,196.727 -13.301,216.682 -13.301,253.364 -1.058,262.497 17.754,259.519 			"/>
			<path style="fill:#DCDCDC;" d="M75.293,167.563l-60.259,26.11l0.969,6.62c0,0,15.729-7.145,23.715-6.642
				c4.893,0.308,18.024,7.22,18.024,7.22L75.293,167.563z"/>
			<path style="fill:#DCDCDC;" d="M19.006,203.77c0,0,15.47-6.297,20.87-5.85c4.177,0.345,15.178,7.115,15.178,7.115l-12.359,28.934
				L19.006,203.77z"/>
			<polygon style="fill:#DCDCDC;" points="16.903,206.434 24.519,258.448 30.608,257.485 40.035,238.396 			"/>
			<polygon style="fill:#DCDCDC;" points="43.513,243.139 38.001,256.314 53.771,253.818 			"/>
			<polygon style="fill:#DCDCDC;" points="80.669,170.409 70.55,189.699 85.57,191.912 			"/>
			<polygon style="fill:#DCDCDC;" points="68.653,193.967 47.15,237.606 58.892,253.008 97.895,246.834 86.361,196.023 			"/>
			<polygon style="fill:#DCDCDC;" points="86.1,157.596 102.33,235.392 126.046,204.561 144.229,222.901 159.146,193.86 			"/>
			<polygon style="fill:#DCDCDC;" points="126.046,210.885 103.278,243.139 103.278,245.982 151.279,238.384 			"/>
			<polygon style="fill:#DCDCDC;" points="163.952,196.246 154.98,214.68 180.436,227.17 189.524,208.941 			"/>
			<polygon style="fill:#DCDCDC;" points="152.45,218.632 148.498,227.17 156.879,237.498 179.171,233.969 			"/>
			<polygon style="fill:#DCDCDC;" points="195.21,211.764 185.495,233.969 213.164,248.515 217.265,222.713 			"/>
			<polygon style="fill:#DCDCDC;" points="221.86,271.283 214.587,253.575 189.448,274.919 198.144,287.094 			"/>
			<path style="fill:#ACD47C;" d="M248.875,237.494c0,0-0.627,2.157-0.774,2.89c-0.159,0.795-0.428,3.213-0.428,3.213l-28.5,4.917
				l2.601-23.564L248.875,237.494z"/>
			<path style="fill:#ACD47C;" d="M221.86,252.784l6.641,16.127l21.296-13.625c0,0-1.095-2.81-1.357-3.779
				c-0.244-0.903-0.683-3.678-0.683-3.678L221.86,252.784z"/>
			<path style="fill:#ACD47C;" d="M230.398,274.445l21.535-15.406c0,0,2.022,2.583,2.798,3.349c0.879,0.868,3.831,3.123,3.831,3.123
				l-12.669,23.163L230.398,274.445z"/>
			<path style="fill:#ACD47C;" d="M263.564,268.03c0,0,3.248,0.963,4.36,1.144c1.171,0.19,4.735,0.311,4.735,0.311l1.555,27.31
				l-22.156-5.591L263.564,268.03z"/>
			<path style="fill:#ACD47C;" d="M278.376,296.422l18.586-6.482l-12.513-23.936c0,0-2.702,1.437-3.65,1.809
				c-0.995,0.39-4.101,1.21-4.101,1.21L278.376,296.422z"/>
			<path style="fill:#ACD47C;" d="M301.705,287.094l15.513-15.638l-25.266-12.553c0,0-1.306,1.757-1.787,2.305
				c-0.504,0.574-2.153,2.169-2.153,2.169L301.705,287.094z"/>
			<path style="fill:#DCDCDC;" d="M226.182,276.553l-99.714,60.714l36.049,45.535c0,0,40.175-54.557,50.806-74.417
				C217.373,300.819,226.182,276.553,226.182,276.553z"/>
			<path style="fill:#DCDCDC;" d="M230.398,284.353l13.914,10.541l-57.973,117.001l-20.449-26.773c0,0,33.866-44.619,43.638-60.503
				C215.469,314.961,230.398,284.353,230.398,284.353z"/>
			<polygon style="fill:#DCDCDC;" points="194.349,289.623 182.544,276.553 88.732,292.364 124.36,334.526 			"/>
			<polygon style="fill:#ACD47C;" points="119.089,336.213 96.532,352.235 74.397,318.294 92.527,304.38 			"/>
			<polygon style="fill:#ACD47C;" points="89.353,301.095 71.446,315.553 49.728,298.574 84.516,293.84 			"/>
			<polygon style="fill:#ACD47C;" points="72.921,325.04 46.043,384.489 91.262,354.764 			"/>
			<polygon style="fill:#ACD47C;" points="102.224,354.764 48.256,388.916 49.444,391.736 144.387,408.943 160.409,387.23 
				141.541,364.883 121.619,378.586 			"/>
			<polygon style="fill:#ACD47C;" points="122.462,340.218 107.284,351.181 121.197,372.051 138.484,360.035 			"/>
			<polygon style="fill:#ACD47C;" points="141.541,414.635 110.235,458.273 84.095,432.554 95.689,405.359 			"/>
			<polygon style="fill:#ACD47C;" points="50.365,398.192 79.878,428.338 90.786,404.3 			"/>
			<polygon style="fill:#ACD47C;" points="67.969,321.758 42.834,299.469 30.679,300.514 42.861,383.713 			"/>
			<polygon style="fill:#ACD47C;" points="23.857,301.399 14.105,302.483 5.251,321.034 27.066,323.416 			"/>
			<polygon style="fill:#ACD47C;" points="3.775,325.04 -2.76,340.218 29.896,344.329 27.613,327.168 			"/>
			<polygon style="fill:#ACD47C;" points="-13.301,307.543 5.251,306.699 -13.301,345.91 			"/>
			<polygon style="fill:#ACD47C;" points="-5.29,344.013 -14.566,361.3 -14.566,372.051 29.494,384.489 			"/>
			<polygon style="fill:#ACD47C;" points="-14.566,377.954 -14.566,420.959 29.494,392.711 			"/>
			<polygon style="fill:#ACD47C;" points="31.391,398.192 -13.301,428.338 -13.301,477.668 -4.025,481.884 			"/>
			<polygon style="fill:#ACD47C;" points="38.411,401.261 -0.02,483.149 54.37,510.765 			"/>
			<polygon style="fill:#ACD47C;" points="45.167,399.457 61.959,514.138 107.284,462.068 			"/>
			<polygon style="fill:#ACD47C;" points="-13.301,484.203 -13.301,511.609 1.667,511.609 9.045,494.955 			"/>
			<polygon style="fill:#ACD47C;" points="13.472,496.219 7.464,511.609 42.986,511.609 			"/>
			<polygon style="fill:#DCDCDC;" points="27.572,279.297 205.101,250.887 180.436,240.293 25.585,265.726 			"/>
			<polygon style="fill:#DCDCDC;" points="28.231,283.799 29.967,295.652 183.545,273.417 203.203,256.737 			"/>
			<polygon style="fill:#DCDCDC;" points="-13.301,288.675 21.465,284.986 23.075,296.033 -13.301,303.326 			"/>
			<polygon style="fill:#DCDCDC;" points="-13.301,272.113 -13.301,283.51 20.747,280.062 18.799,266.689 			"/>
			<polygon style="fill:#DCDCDC;" points="150.757,410.717 184.547,417.692 162.411,390.497 			"/>
			<polygon style="fill:#DCDCDC;" points="146.6,414.846 133.003,435.084 165.89,456.165 182.333,422.435 			"/>
			<polygon style="fill:#DCDCDC;" points="163.044,460.381 148.181,492.003 113.924,462.279 130.473,438.246 			"/>
			<polygon style="fill:#DCDCDC;" points="111.711,466.495 97.587,483.571 139.538,508.447 145.23,497.273 			"/>
			<polygon style="fill:#DCDCDC;" points="94.424,488.419 72.711,510.765 135.322,510.765 			"/>
			<polygon style="fill:#DCDCDC;" points="150.079,499.592 143.754,511.609 164.836,511.609 			"/>
			<polygon style="fill:#DCDCDC;" points="192.663,462.7 154.295,486.522 152.608,494.533 177.906,511.609 205.101,510.765 			"/>
			<polygon style="fill:#DCDCDC;" points="183.793,427.65 161.463,475.981 191.398,458.273 			"/>
			<polygon style="fill:#DCDCDC;" points="189.922,421.17 196.668,453.425 216.485,434.03 			"/>
			<polygon style="fill:#DCDCDC;" points="197.301,459.96 219.647,438.246 229.344,511.609 209.949,511.609 			"/>
			<polygon style="fill:#DCDCDC;" points="227.658,456.165 235.247,511.609 269.561,474.297 			"/>
			<polygon style="fill:#DCDCDC;" points="271.928,478.282 242.204,511.609 264.971,511.609 276.777,483.887 			"/>
			<polygon style="fill:#DCDCDC;" points="279.969,488.485 268.134,511.609 305.447,511.609 305.447,508.447 			"/>
			<polygon style="fill:#DCDCDC;" points="326.95,475.981 295.662,457.827 282.226,484.076 307.134,502.965 			"/>
			<polygon style="fill:#DCDCDC;" points="332.22,479.565 343.909,491.664 317.975,511.729 311.35,506.549 			"/>
			<polygon style="fill:#DCDCDC;" points="347.429,495.491 326.107,512.015 364.053,511.609 			"/>
			<polygon style="fill:#DCDCDC;" points="373.75,511.609 369.636,478.282 350.804,492.922 368.902,511.609 			"/>
			<polygon style="fill:#DCDCDC;" points="361.734,440.987 334.281,475.967 347.208,489.113 367.567,473.362 			"/>
			<polygon style="fill:#DCDCDC;" points="327.386,419.792 297.914,453.428 329.901,472.187 355.621,439.743 			"/>
			<polygon style="fill:#ACD47C;" points="3.828,345.91 30.904,349.752 35.721,382.802 			"/>
			<polygon style="fill:#DCDCDC;" points="280.522,406.757 235.458,436.349 284.379,458.185 			"/>
			<polygon style="fill:#DCDCDC;" points="283.374,378.075 288.035,454.21 323.577,415.562 			"/>
			<polygon style="fill:#DCDCDC;" points="346.831,397.599 330.745,415.9 359.257,436.532 			"/>
			<polygon style="fill:#ACD47C;" points="364.053,430.235 395.253,398.192 393.145,388.705 351.826,398.192 			"/>
			<polygon style="fill:#ACD47C;" points="377.32,351.749 351.299,392.5 389.561,384.278 			"/>
			<polygon style="fill:#DCDCDC;" points="370.414,350.548 334.118,350.548 346.591,384.173 			"/>
			<polygon style="fill:#DCDCDC;" points="329.48,352.235 312.062,375.24 336.292,398.71 343.028,389.202 			"/>
			<polygon style="fill:#DCDCDC;" points="280.151,401.029 278.357,369.52 236.723,403.251 222.598,431.184 229.344,433.608 			"/>
			<polygon style="fill:#DCDCDC;" points="275.751,323.764 278.098,364.98 276.144,366.359 260.938,351.798 			"/>
			<polygon style="fill:#DCDCDC;" points="258.225,356.135 272.139,368.889 242.625,392.5 			"/>
			<polygon style="fill:#DCDCDC;" points="247.474,296.422 269.609,302.483 249.213,342.748 230.398,332.629 			"/>
			<polygon style="fill:#DCDCDC;" points="229.344,337.056 246.631,346.121 208.474,426.019 190.555,414.846 			"/>
			<g>
				<polygon style="fill:#DCDCDC;" points="258.151,349.286 253.66,346.962 274.575,303.115 275.316,316.12 				"/>
			</g>
			<g>
				
					<rect x="193.082" y="387.336" transform="matrix(0.4425 -0.8968 0.8968 0.4425 -218.5863 428.1135)" style="fill:#DCDCDC;" width="83.909" height="5.058"/>
			</g>
			<polygon style="fill:#DCDCDC;" points="272.139,471.554 280.631,462.26 224.655,437.297 227.188,452.511 			"/>
			<polygon style="fill:#DCDCDC;" points="330.745,341.905 355.621,317.661 311.982,296.422 305.869,297.213 			"/>
			<polygon style="fill:#DCDCDC;" points="323.577,339.164 280.992,339.164 278.737,302.326 299.966,296.422 			"/>
			<polygon style="fill:#DCDCDC;" points="321.187,273.376 307.345,290.256 359.204,313.867 374.021,298.941 			"/>
			<polygon style="fill:#DCDCDC;" points="360.68,319.585 336.015,344.118 374.97,344.118 383.602,331.786 			"/>
			<polygon style="fill:#DCDCDC;" points="364.475,315.553 385.978,328.582 398.564,310.817 377.589,300.667 			"/>
			<polygon style="fill:#ACD47C;" points="388.419,334.367 380.213,347.219 395.253,382.802 410.181,379.507 409.976,349.305 			"/>
			<polygon style="fill:#ACD47C;" points="409.878,343.038 409.878,316.291 402.302,312.626 390.666,330.848 			"/>
			<polygon style="fill:#ACD47C;" points="400.049,395.24 409.378,385.596 396.479,387.23 			"/>
			<polygon style="fill:#DCDCDC;" points="297.015,384.173 326.95,349.286 325.264,344.118 311.192,344.118 282.728,367.522 
				282.948,371.111 			"/>
			<polygon style="fill:#DCDCDC;" points="282.442,362.646 307.345,341.905 281.154,341.809 			"/>
			<polygon style="fill:#DCDCDC;" points="326.95,411.895 334.109,401.79 308.583,378.481 300.599,387.23 			"/>
			<polygon style="fill:#ACD47C;" points="366.214,433.608 372.459,469.577 410.484,440.158 410.1,391.13 			"/>
			<polygon style="fill:#ACD47C;" points="373.75,475.093 410.484,446.626 410.484,511.609 379.337,511.609 			"/>
			<polygon style="fill:#DCDCDC;" points="414.648,318.599 415.173,346.581 432.778,358.559 447.659,334.572 			"/>
			<polygon style="fill:#DCDCDC;" points="415.28,352.235 415.657,372.331 420.353,376.563 430.211,363.057 			"/>
			<polygon style="fill:#DCDCDC;" points="452.176,336.758 424.121,379.96 442.027,396.099 470.957,345.846 			"/>
			<polygon style="fill:#DCDCDC;" points="475.315,347.954 445.919,399.606 455.214,407.984 510.199,364.834 			"/>
			<polygon style="fill:#DCDCDC;" points="459.158,411.539 480.17,430.477 514.14,396.294 513.757,366.556 			"/>
			<polygon style="fill:#DCDCDC;" points="484.435,434.321 514.14,403.462 514.14,461.094 			"/>
			<polygon style="fill:#DCDCDC;" points="415.825,381.289 416.863,436.532 449.133,412.378 			"/>
			<polygon style="fill:#DCDCDC;" points="429.194,433.714 416.968,442.161 417.952,494.533 453.33,457.484 			"/>
			<polygon style="fill:#DCDCDC;" points="418.115,503.216 418.272,511.609 432.27,511.776 447.886,498.28 434.714,485.972 			"/>
			<polygon style="fill:#DCDCDC;" points="499.736,459.609 479.034,477.548 512.043,511.609 514.14,511.609 514.039,472.96 			"/>
			<polygon style="fill:#DCDCDC;" points="496.32,456.422 475.573,474.295 460.93,458.738 478.854,440.118 			"/>
			<polygon style="fill:#DCDCDC;" points="456.624,454.17 474.82,435.86 461.025,423.459 445.005,440.987 			"/>
			<polygon style="fill:#DCDCDC;" points="441.632,438.246 458.02,420.673 452.113,415.159 434.57,430.617 			"/>
			<polygon style="fill:#DCDCDC;" points="486.113,491.792 464.821,511.609 505.086,511.609 			"/>
			<polygon style="fill:#DCDCDC;" points="450.934,501.815 439.418,511.776 460.183,511.609 			"/>
			<polygon style="fill:#DCDCDC;" points="445.829,474.426 437.701,482.87 450.945,495.636 459.9,487.897 			"/>
			<polygon style="fill:#DCDCDC;" points="448.756,471.385 462.828,485.366 472.407,477.089 457.852,461.936 			"/>
			<polygon style="fill:#DCDCDC;" points="454.366,498.874 475.629,480.457 482.74,488.525 461.712,506.655 			"/>
			<circle style="fill:#DCDCDC;" cx="271.783" cy="244.517" r="13.914"/>
			<line style="fill:none;stroke:#B6D9F7;stroke-width:2;stroke-miterlimit:10;" x1="-0.02" y1="118.76" x2="58.586" y2="514.138"/>
			
				<line style="fill:none;stroke:#B6D9F7;stroke-width:2;stroke-miterlimit:10;" x1="48.256" y1="-18.373" x2="44.351" y2="-7.279"/>
			<polyline style="fill:none;stroke:#B6D9F7;stroke-width:2;stroke-miterlimit:10;" points="-17.833,374.317 51.893,396.031 
				91.262,401.261 143.596,411.895 185.179,420.959 208.263,513.611 			"/>
			<polyline style="fill:none;stroke:#B6D9F7;stroke-width:2;stroke-miterlimit:10;" points="115.769,18.519 322.469,90.722 
				372.591,110.117 400.524,124.768 434.043,146.805 471.673,171.99 519,206.036 			"/>
			
				<line style="fill:none;stroke:#B6D9F7;stroke-width:2;stroke-miterlimit:10;" x1="12.865" y1="-18.373" x2="99.578" y2="12.182"/>
			<circle style="fill:#DCDCDC;" cx="39.692" cy="391.736" r="6.456"/>
			<polygon style="fill:#DCDCDC;" points="272.297,475.981 279.393,481.276 292.693,456.165 			"/>
		</g>
	</g>
</g>
<g id="DESIGNED_BY_FREEPIK">
	<g>
		<g id="XMLID_319_">
			<g id="XMLID_338_">
				<path id="XMLID_346_" style="fill:#1D262D;" d="M260.104,465.465c-0.432,0.443-0.803,0.931-1.108,1.453l-0.465-0.241
					c-0.067-0.298-0.349-0.503-0.659-0.466c-0.331,0.039-0.568,0.339-0.529,0.67s0.339,0.568,0.67,0.529
					c0.065-0.008,0.127-0.026,0.184-0.052l0.451,0.234c-0.251,0.554-0.433,1.139-0.539,1.744l0.746,0.132
					c0.23-1.306,0.85-2.507,1.792-3.473L260.104,465.465z"/>
				<path id="XMLID_345_" style="fill:#1D262D;" d="M265.592,463.163c-0.171,0-0.341,0.006-0.51,0.017l-0.074-0.626
					c0.188-0.149,0.296-0.389,0.266-0.645c-0.046-0.393-0.402-0.674-0.795-0.628s-0.674,0.402-0.628,0.795
					c0.03,0.254,0.189,0.461,0.405,0.564l0.073,0.624c-0.714,0.116-1.403,0.332-2.06,0.646l0.327,0.684
					c0.934-0.447,1.942-0.673,2.995-0.673c0.496,0,0.993,0.053,1.475,0.158l0.161-0.741
					C266.693,463.222,266.142,463.163,265.592,463.163z"/>
				<path id="XMLID_344_" style="fill:#1D262D;" d="M272.194,465.711c0.331-0.04,0.566-0.341,0.525-0.672
					c-0.04-0.331-0.341-0.566-0.672-0.526c-0.309,0.038-0.535,0.304-0.53,0.609l-0.416,0.363c-0.418-0.43-0.89-0.813-1.408-1.139
					l-0.404,0.641c1.134,0.715,2.021,1.726,2.563,2.925l0.691-0.313c-0.251-0.554-0.568-1.072-0.942-1.545l0.402-0.351
					C272.065,465.716,272.129,465.719,272.194,465.711z"/>
				<path id="XMLID_343_" style="fill:#1D262D;" d="M265.044,473.372c-0.386,0.023-0.775,0.035-1.157,0.035
					c-0.88,0-1.733-0.061-2.478-0.179c-0.39-0.062-0.846-0.155-1.27-0.292c1.046,1.861,3.069,3.125,5.388,3.125
					c2.855,0,5.262-1.916,5.95-4.504c-0.682,0.449-1.505,0.825-2.459,1.123C267.839,473.047,266.464,473.286,265.044,473.372z"/>
				<path id="XMLID_339_" style="fill:#1D262D;" d="M265.592,464.68c-3.352,0-6.08,2.666-6.08,5.943
					c0,0.426,0.046,0.849,0.137,1.261c0.674,0.483,2.706,0.89,5.348,0.731c2.879-0.173,5.297-0.957,6.672-2.159
					c-0.005-0.195-0.021-0.39-0.045-0.582C271.244,466.913,268.65,464.68,265.592,464.68z M263.432,471.194
					c-1.02,0-1.85-0.83-1.85-1.85c0-1.02,0.83-1.85,1.85-1.85c1.02,0,1.85,0.83,1.85,1.85
					C265.282,470.365,264.452,471.194,263.432,471.194z M268.17,470.286c-0.75,0-1.36-0.61-1.36-1.36s0.61-1.361,1.36-1.361
					c0.75,0,1.361,0.61,1.361,1.361S268.92,470.286,268.17,470.286z"/>
			</g>
			<path id="XMLID_336_" style="fill:#1D262D;" d="M281.595,466.547c-0.295-0.116-0.806-0.309-1.382-0.237
				c-0.551,0.069-0.844,0.341-0.844,1.007v0.866h2.228v1.717h-2.228v5.455h-1.932v-5.455h-1.34v-1.717h1.34v-0.888
				c0-1.68,0.896-2.783,2.568-2.783c0.642,0,1.157,0.122,1.59,0.308L281.595,466.547z"/>
			<path id="XMLID_334_" style="fill:#1D262D;" d="M286.298,469.879c-0.177-0.03-0.358-0.046-0.526-0.046
				c-0.896,0-1.51,0.548-1.51,1.614v3.908h-1.932v-7.172h1.873v0.785c0.451-0.673,1.14-0.977,2.021-0.977
				c0.414,0,0.848,0.128,1.094,0.337L286.298,469.879z"/>
			<path id="XMLID_331_" style="fill:#1D262D;" d="M293.965,471.757c0,0.222-0.015,0.489-0.037,0.651h-5.085
				c0.207,1.036,0.933,1.488,1.843,1.488c0.622,0,1.295-0.252,1.813-0.688l1.132,1.243c-0.814,0.748-1.85,1.088-3.057,1.088
				c-2.198,0-3.723-1.495-3.723-3.753c0-2.258,1.48-3.797,3.627-3.797C292.544,467.99,293.958,469.522,293.965,471.757z
				 M288.851,471.091h3.175c-0.177-0.918-0.733-1.436-1.562-1.436C289.554,469.655,289.021,470.203,288.851,471.091z"/>
			<path id="XMLID_328_" style="fill:#1D262D;" d="M301.618,471.757c0,0.222-0.015,0.489-0.037,0.651h-5.085
				c0.207,1.036,0.932,1.488,1.843,1.488c0.622,0,1.295-0.252,1.813-0.688l1.132,1.243c-0.814,0.748-1.85,1.088-3.057,1.088
				c-2.198,0-3.723-1.495-3.723-3.753c0-2.258,1.48-3.797,3.627-3.797C300.197,467.99,301.611,469.522,301.618,471.757z
				 M296.504,471.091h3.175c-0.178-0.918-0.733-1.436-1.562-1.436C297.207,469.655,296.674,470.203,296.504,471.091z"/>
			<path id="XMLID_325_" style="fill:#1D262D;" d="M309.964,471.764c0,2.154-1.495,3.775-3.471,3.775
				c-0.962,0-1.643-0.378-2.109-0.933v3.708h-1.924v-10.133h1.887v0.792c0.466-0.585,1.155-0.984,2.139-0.984
				C308.469,467.99,309.964,469.61,309.964,471.764z M304.287,471.764c0,1.132,0.747,1.976,1.843,1.976
				c1.14,0,1.85-0.881,1.85-1.976c0-1.095-0.71-1.976-1.85-1.976C305.035,469.788,304.287,470.632,304.287,471.764z"/>
			<path id="XMLID_322_" style="fill:#1D262D;" d="M313.068,465.836c0,0.696-0.54,1.229-1.236,1.229
				c-0.696,0-1.229-0.533-1.229-1.229c0-0.696,0.533-1.243,1.229-1.243C312.527,464.592,313.068,465.14,313.068,465.836z
				 M312.809,475.354h-1.932v-7.172h1.932V475.354z"/>
			<path id="XMLID_320_" style="fill:#1D262D;" d="M316.032,470.736l2.702-2.554h2.368l-3.479,3.375l3.501,3.797h-2.376
				l-2.716-2.901v2.901H314.1v-10.658h1.932V470.736z"/>
		</g>
		<g>
			<path style="fill:#1D262D;" d="M184.412,475.289v-1.055c-0.527,0.718-1.391,1.23-2.388,1.23c-1.846,0-3.149-1.406-3.149-3.706
				c0-2.256,1.289-3.721,3.149-3.721c0.952,0,1.816,0.469,2.388,1.245v-3.765h1.099v9.77H184.412z M184.412,473.37v-3.208
				c-0.395-0.615-1.245-1.143-2.124-1.143c-1.421,0-2.27,1.172-2.27,2.739c0,1.567,0.85,2.724,2.27,2.724
				C183.168,474.483,184.017,473.986,184.412,473.37z"/>
			<path style="fill:#1D262D;" d="M186.932,471.744c0-2.051,1.465-3.706,3.486-3.706c2.139,0,3.398,1.67,3.398,3.794v0.279h-5.727
				c0.088,1.333,1.025,2.446,2.549,2.446c0.805,0,1.626-0.322,2.182-0.894l0.527,0.718c-0.703,0.703-1.655,1.084-2.812,1.084
				C188.44,475.465,186.932,473.956,186.932,471.744z M190.403,468.947c-1.509,0-2.256,1.274-2.314,2.358h4.643
				C192.718,470.25,192.015,468.947,190.403,468.947z"/>
			<path style="fill:#1D262D;" d="M194.607,474.351l0.571-0.791c0.469,0.542,1.362,1.011,2.329,1.011c1.084,0,1.67-0.513,1.67-1.216
				c0-1.714-4.38-0.659-4.38-3.281c0-1.098,0.952-2.036,2.636-2.036c1.201,0,2.051,0.454,2.622,1.026l-0.513,0.762
				c-0.424-0.513-1.201-0.894-2.109-0.894c-0.967,0-1.567,0.483-1.567,1.113c0,1.552,4.38,0.527,4.38,3.281
				c0,1.187-0.952,2.138-2.783,2.138C196.306,475.465,195.325,475.113,194.607,474.351z"/>
			<path style="fill:#1D262D;" d="M201.477,466.471c0-0.41,0.337-0.747,0.732-0.747c0.41,0,0.747,0.337,0.747,0.747
				c0,0.41-0.337,0.732-0.747,0.732C201.814,467.203,201.477,466.881,201.477,466.471z M201.667,475.289v-7.075h1.099v7.075H201.667
				z"/>
			<path style="fill:#1D262D;" d="M204.582,477.105l0.556-0.82c0.586,0.703,1.289,0.967,2.3,0.967c1.172,0,2.27-0.571,2.27-2.124
				v-1.011c-0.513,0.718-1.377,1.26-2.373,1.26c-1.845,0-3.149-1.377-3.149-3.662c0-2.27,1.289-3.677,3.149-3.677
				c0.952,0,1.802,0.469,2.373,1.245v-1.069h1.098v6.87c0,2.344-1.641,3.076-3.369,3.076
				C206.237,478.16,205.417,477.926,204.582,477.105z M209.709,473.253v-3.091c-0.381-0.615-1.23-1.143-2.109-1.143
				c-1.421,0-2.27,1.128-2.27,2.695c0,1.553,0.849,2.695,2.27,2.695C208.478,474.41,209.328,473.868,209.709,473.253z"/>
			<path style="fill:#1D262D;" d="M217.413,475.289v-4.629c0-1.245-0.63-1.641-1.582-1.641c-0.865,0-1.685,0.527-2.095,1.099v5.17
				h-1.099v-7.075h1.099v1.025c0.498-0.586,1.465-1.201,2.519-1.201c1.48,0,2.256,0.747,2.256,2.285v4.966H217.413z"/>
			<path style="fill:#1D262D;" d="M219.932,471.744c0-2.051,1.465-3.706,3.486-3.706c2.139,0,3.398,1.67,3.398,3.794v0.279h-5.727
				c0.088,1.333,1.025,2.446,2.549,2.446c0.806,0,1.626-0.322,2.183-0.894l0.527,0.718c-0.703,0.703-1.655,1.084-2.812,1.084
				C221.441,475.465,219.932,473.956,219.932,471.744z M223.404,468.947c-1.509,0-2.256,1.274-2.314,2.358h4.643
				C225.718,470.25,225.015,468.947,223.404,468.947z"/>
			<path style="fill:#1D262D;" d="M233.35,475.289v-1.055c-0.527,0.718-1.392,1.23-2.388,1.23c-1.846,0-3.149-1.406-3.149-3.706
				c0-2.256,1.289-3.721,3.149-3.721c0.952,0,1.817,0.469,2.388,1.245v-3.765h1.098v9.77H233.35z M233.35,473.37v-3.208
				c-0.396-0.615-1.245-1.143-2.124-1.143c-1.421,0-2.27,1.172-2.27,2.739c0,1.567,0.849,2.724,2.27,2.724
				C232.105,474.483,232.954,473.986,233.35,473.37z"/>
			<path style="fill:#1D262D;" d="M239.692,475.289v-9.77h1.098v3.765c0.572-0.776,1.421-1.245,2.388-1.245
				c1.845,0,3.149,1.465,3.149,3.721c0,2.299-1.304,3.706-3.149,3.706c-0.996,0-1.86-0.513-2.388-1.23v1.055H239.692z
				 M242.9,474.483c1.436,0,2.285-1.157,2.285-2.724c0-1.568-0.85-2.739-2.285-2.739c-0.864,0-1.728,0.527-2.109,1.143v3.208
				C241.171,473.986,242.036,474.483,242.9,474.483z"/>
			<path style="fill:#1D262D;" d="M247.528,477.061c0.161,0.073,0.425,0.117,0.601,0.117c0.483,0,0.805-0.161,1.055-0.747
				l0.469-1.069l-2.959-7.148h1.187l2.358,5.8l2.344-5.8h1.201l-3.545,8.51c-0.425,1.025-1.143,1.421-2.08,1.435
				c-0.234,0-0.601-0.044-0.805-0.103L247.528,477.061z"/>
		</g>
	</g>
</g>
</svg>
